<svg width="64" height="63" viewBox="0 0 64 63" fill="none" xmlns="http://www.w3.org/2000/svg">
<path fill-rule="evenodd" clip-rule="evenodd" d="M1.27853 0C0.388339 0 -0.164999 0.681095 0.044219 1.52609L1.85771 8.85385C2.06653 9.69689 2.4054 11.0646 2.613 11.9053L14.8822 61.4747C15.0906 62.3169 15.982 63 16.8718 63H49.8075C50.0196 62.9997 50.2295 62.9589 50.4253 62.8798C50.6212 62.8007 50.799 62.685 50.9487 62.5391C51.0984 62.3933 51.217 62.2202 51.2978 62.0298C51.3786 61.8395 51.4199 61.6355 51.4194 61.4296V51.6057C51.4191 51.1894 51.2487 50.7903 50.9456 50.496C50.6424 50.2016 50.2314 50.0361 49.8026 50.0357H27.6489C26.7559 50.0357 25.8479 49.3565 25.6214 48.5174L12.9063 1.51786C12.6793 0.679527 11.7689 0 10.8836 0H1.27853Z" fill="#E3D1D1"/>
<path fill-rule="evenodd" clip-rule="evenodd" d="M18.5726 0.31325C17.6824 0.31325 17.1517 0.990817 17.388 1.82993L28.8344 42.4879C29.0707 43.3258 29.9819 44.005 30.8757 44.005H33.8209C34.7123 44.005 35.592 43.3188 35.7846 42.4757L45.0799 1.84209C45.2734 0.997483 44.7071 0.312859 43.8157 0.312859H41.8067C40.9153 0.312859 40.0542 1.0014 39.8834 1.84993L34.2175 29.9921C34.0467 30.8414 33.1811 31.5296 32.2909 31.5296H32.8128C31.9194 31.5296 31.0114 30.8485 30.7852 30.0133L23.1572 1.82915C22.931 0.991602 22.0259 0.312859 21.1353 0.312859H18.5722L18.5726 0.31325Z" fill="#E3D1D1"/>
<path fill-rule="evenodd" clip-rule="evenodd" d="M39.8967 43.9937C39.0032 43.9937 38.4459 43.3142 38.6543 42.4657L48.6669 1.68384C48.8741 0.840017 49.7651 0.155785 50.6585 0.155785H52.9122C53.8052 0.155785 54.363 0.835312 54.1562 1.68384L44.1937 42.4657C43.9877 43.3099 43.0959 43.9937 42.2025 43.9937H39.8967ZM51.5507 44.5466C52.4433 44.5466 53.3404 43.8616 53.5516 43.026L63.9544 1.88656C64.1668 1.04627 63.6175 0.365564 62.7205 0.365564H59.9768C59.083 0.365564 58.1851 1.05058 57.9739 1.88656L47.5784 43.0256C47.3663 43.8655 47.9148 44.5462 48.8103 44.5462L51.5507 44.5466Z" fill="#E3D1D1"/>
</svg>
